<svg
  viewBox="0 0 1024 1024"
  xmlns="http://www.w3.org/2000/svg"
>
  <path
    d="M417.7424641 638.26495339c27.60801008 47.81969061 10.62441925 111.2081028-37.19630336 138.81611287-47.8207226 27.61007408-111.2081028 10.62545125-138.81611287-37.19527134L38.48733283 387.86096246c-27.61007408-47.8207226-10.62545125-111.2081028 37.19630336-138.81714487 47.8207226-27.60801008 111.2070708-10.62441925 138.81611287 37.19630335l203.24168304 352.02483245z m375.84953791-3.62953691c27.61007408 47.81969061 10.62545125 111.2060388-37.19423935 138.81508087-47.8217546 27.61007408-111.2081028 10.62545125-138.81714488-37.19527134l-203.24168303-352.02483246c-27.61007408-47.81969061-10.62545125-111.2070708 37.19527135-138.81611287 47.8207226-27.61007408 111.2070708-10.62441925 138.81611287 37.19630335l203.24168304 352.02380045z m104.93665105-205.21795919c-56.14378634 0-101.62084152-45.47499118-101.62084152-101.62084152 0-56.14378634 45.47705518-101.62084152 101.62084152-101.62084152 56.14585034 0 101.62084152 45.47808717 101.62084152 101.62084152 0 56.14585034-45.47499118 101.62084152-101.62084152 101.62084152z"
    fill="#42B883"
  ></path>
</svg>
